<svg version="1.1" id="Capa_1" xmlns="http://www.w3.org/2000/svg" x="0" y="0" width="56.907" height="56.907" style="enable-background:new 0 0 56.907 56.907" xml:space="preserve"><g style="fill:#fff"><path d="M28.454 43.496c14.917 0 27.009-7.863 27.009-17.563 0-3.798-1.86-7.313-5.012-10.186a25.227 25.227 0 0 1 1.221 7.677c0 7.972-8.353 14.175-20.312 15.084a1.04 1.04 0 0 1-1.117-.96c-.01-.122.013-.237.043-.35.114-.413.466-.732.917-.768 10.826-.824 18.387-6.173 18.387-13.007 0-3.38-.848-6.881-2.366-10.116C43.773 5.963 36.853 0 28.454 0S13.133 5.963 9.685 13.31c-1.519 3.234-2.366 6.735-2.366 10.115 0 2.784 1.292 5.411 3.736 7.598.303.271.399.677.3 1.046-.041.152-.106.3-.219.425a1.041 1.041 0 0 1-1.471.081c-2.898-2.592-4.43-5.756-4.43-9.15 0-2.635.437-5.22 1.222-7.677-3.152 2.873-5.013 6.387-5.013 10.186 0 9.7 12.093 17.562 27.01 17.562zM22.655 56.332c2.456.549 4.528.057 5.799-.993 1.271 1.05 3.343 1.542 5.798.993 5.586-1.246 8.879.575 8.879.575.417-6.554-4.921-8.389-7.865-8.903a8.705 8.705 0 0 0-1.709-.195 39.83 39.83 0 0 0-.163-.006c-2.049 0-3.855.688-4.94 1.733-1.086-1.046-2.893-1.733-4.94-1.733l-.163.006a8.762 8.762 0 0 0-1.708.195c-2.944.515-8.283 2.35-7.865 8.903-.002 0 3.291-1.821 8.877-.575z"/></g></svg>