<?xml version="1.0" encoding="iso-8859-1"?>
<!-- Generator: Adobe Illustrator 16.0.0, SVG Export Plug-In . SVG Version: 6.00 Build 0)  -->
<!DOCTYPE svg PUBLIC "-//W3C//DTD SVG 1.1//EN" "http://www.w3.org/Graphics/SVG/1.1/DTD/svg11.dtd">
<svg version="1.1" id="Capa_1" xmlns="http://www.w3.org/2000/svg" xmlns:xlink="http://www.w3.org/1999/xlink" x="0px" y="0px"
	 width="56.907px" height="56.907px" viewBox="0 0 56.907 56.907" style="enable-background:new 0 0 56.907 56.907;"
	 xml:space="preserve">
	 
	   <style type="text/css">
    <![CDATA[ 
    #logo {
      fill: white;
    }
     ]]> 
  </style>
  
<g>
	<g id="logo">
		<path d="M28.454,43.496c14.917,0,27.009-7.863,27.009-17.563c0-3.798-1.86-7.313-5.012-10.186
			c0.785,2.457,1.221,5.042,1.221,7.677c0,7.972-8.353,14.175-20.312,15.084c-0.026,0.002-0.054,0.002-0.079,0.002
			c-0.54,0-0.997-0.415-1.038-0.962c-0.01-0.122,0.013-0.237,0.043-0.35c0.114-0.413,0.466-0.732,0.917-0.768
			c10.826-0.824,18.387-6.173,18.387-13.007c0-3.38-0.848-6.881-2.366-10.116C43.773,5.963,36.853,0,28.454,0
			S13.133,5.963,9.685,13.31c-1.519,3.234-2.366,6.735-2.366,10.115c0,2.784,1.292,5.411,3.736,7.598
			c0.303,0.271,0.399,0.677,0.3,1.046c-0.041,0.152-0.106,0.3-0.219,0.425c-0.383,0.428-1.041,0.466-1.471,0.081
			c-2.898-2.592-4.43-5.756-4.43-9.15c0-2.635,0.437-5.22,1.222-7.677c-3.152,2.873-5.013,6.387-5.013,10.186
			C1.444,35.634,13.537,43.496,28.454,43.496z"/>
		<path d="M22.655,56.332c2.456,0.549,4.528,0.057,5.799-0.993c1.271,1.05,3.343,1.542,5.798,0.993
			c5.586-1.246,8.879,0.575,8.879,0.575c0.417-6.554-4.921-8.389-7.865-8.903c-0.54-0.118-1.114-0.185-1.709-0.195
			c-0.104-0.004-0.163-0.006-0.163-0.006c-2.049,0-3.855,0.688-4.94,1.733c-1.086-1.046-2.893-1.733-4.94-1.733
			c0,0-0.061,0.002-0.163,0.006c-0.595,0.011-1.169,0.077-1.708,0.195c-2.944,0.515-8.283,2.35-7.865,8.903
			C13.776,56.907,17.069,55.086,22.655,56.332z"/>
	</g>
</g>
<g>
</g>
<g>
</g>
<g>
</g>
<g>
</g>
<g>
</g>
<g>
</g>
<g>
</g>
<g>
</g>
<g>
</g>
<g>
</g>
<g>
</g>
<g>
</g>
<g>
</g>
<g>
</g>
<g>
</g>
</svg>
